<?xml version="1.0" encoding="UTF-8" standalone="no"?>
<svg
   xmlns:dc="http://purl.org/dc/elements/1.1/"
   xmlns:cc="http://creativecommons.org/ns#"
   xmlns:rdf="http://www.w3.org/1999/02/22-rdf-syntax-ns#"
   xmlns:svg="http://www.w3.org/2000/svg"
   xmlns="http://www.w3.org/2000/svg"
   xmlns:sodipodi="http://sodipodi.sourceforge.net/DTD/sodipodi-0.dtd"
   xmlns:inkscape="http://www.inkscape.org/namespaces/inkscape"
   width="49.172"
   height="49.172"
   version="1.1"
   id="svg1032"
   sodipodi:docname="conex.svg"
   inkscape:version="1.0.2 (e86c870879, 2021-01-15)">
  <metadata
     id="metadata1038">
    <rdf:RDF>
      <cc:Work
         rdf:about="">
        <dc:format>image/svg+xml</dc:format>
        <dc:type
           rdf:resource="http://purl.org/dc/dcmitype/StillImage" />
        <dc:title />
      </cc:Work>
    </rdf:RDF>
  </metadata>
  <defs
     id="defs1036" />
  <sodipodi:namedview
     pagecolor="#ffffff"
     bordercolor="#666666"
     borderopacity="1"
     objecttolerance="10"
     gridtolerance="10"
     guidetolerance="10"
     inkscape:pageopacity="0"
     inkscape:pageshadow="2"
     inkscape:window-width="1920"
     inkscape:window-height="1100"
     id="namedview1034"
     showgrid="false"
     inkscape:zoom="9.5277799"
     inkscape:cx="3.7577118"
     inkscape:cy="11.054749"
     inkscape:window-x="0"
     inkscape:window-y="27"
     inkscape:window-maximized="1"
     inkscape:current-layer="svg1032"
     inkscape:document-rotation="0" />
  <g
     transform="matrix(1.5113617,0,0,-1.5113617,-208.64678,1029.8033)"
     id="g1030">
    <path
       id="path2851"
       d="m 154.43,649.48 c 8.6534,0 15.669,7.015 15.669,15.669 0,8.654 -7.0156,15.669 -15.669,15.669 -8.6534,0 -15.669,-7.015 -15.669,-15.669 0,-8.654 7.0153,-15.669 15.669,-15.669"
       fill="#ffffff"
       style="fill:#ffffff;fill-opacity:0" />
    <path
       id="path2853"
       d="m 160.44,656.04 c -0.83309,-0.11908 -1.1016,-0.76755 -0.5967,-1.4405 l 2.3067,-3.0758 c 2.3039,1.3071 4.2447,3.1788 5.6312,5.4302 l -7.3412,-0.91392"
       fill="#fddd04"
       style="fill:#ffffff;fill-opacity:1" />
    <path
       id="path2855"
       d="m 148.46,659.31 c 0.83309,0.11909 1.1016,0.7673 0.5967,1.4405 l -6.0343,8.0458 c -0.50516,0.6732 -0.3672,0.81115 0.306,0.30625 l 8.0445,-6.0336 c 0.6732,-0.50516 1.3214,-0.23639 1.4405,0.59644 l 1.4224,14.668 c 0.11884,0.83309 0.31365,0.83309 0.43274,0 l 1.4224,-14.67 c 0.11909,-0.83308 0.76704,-1.1013 1.4405,-0.59644 l 8.0475,6.0356 c 0.6732,0.5049 0.8109,0.36695 0.306,-0.30625 l -6.0348,-8.046 c -0.5049,-0.67345 -0.23639,-1.3214 0.5967,-1.4405 l 8.0873,-1.007 c 1.0067,2.0691 1.5728,4.3919 1.5728,6.8473 0,8.6529 -7.0148,15.668 -15.668,15.668 -8.6532,0 -15.668,-7.0148 -15.668,-15.668 0,-2.4569 0.56636,-4.7807 1.5741,-6.8501 l 8.1146,1.01"
       fill="#fddd04"
       style="fill:#ffffff;fill-opacity:1" />
    <path
       id="path2857"
       d="m 152.81,651.68 c -0.11908,0.83309 -0.76729,1.1016 -1.4405,0.5967 l -2.4082,-1.8064 c 1.3104,-0.48883 2.7043,-0.80452 4.154,-0.9259 l -0.30524,2.1356"
       fill="#fddd04"
       style="fill:#ffffff;fill-opacity:1" />
    <path
       id="path2859"
       d="m 156.09,651.68 -0.30524,-2.1354 c 1.4474,0.12317 2.8387,0.4409 4.1468,0.93101 l -2.4011,1.8011 c -0.67345,0.5049 -1.3214,0.23639 -1.4405,-0.5967"
       fill="#fddd04"
       style="fill:#ffffff;fill-opacity:1" />
    <path
       id="path2861"
       d="m 148.46,656.04 -7.3723,0.918 c 1.3908,-2.2598 3.3397,-4.1371 5.6539,-5.4455 l 2.3151,3.0873 c 0.5049,0.67295 0.23639,1.3212 -0.5967,1.4402"
       fill="#fddd04"
       style="fill:#ffffff;fill-opacity:1" />
  </g>
</svg>
